<?xml version="1.0" standalone="no"?>
<!DOCTYPE svg PUBLIC "-//W3C//DTD SVG 20010904//EN"
 "http://www.w3.org/TR/2001/REC-SVG-20010904/DTD/svg10.dtd">
<svg version="1.0" xmlns="http://www.w3.org/2000/svg"
 width="800.000000pt" height="800.000000pt" viewBox="0 0 800.000000 800.000000"
 preserveAspectRatio="xMidYMid meet">
<metadata>
Created by potrace 1.14, written by Peter Selinger 2001-2017
</metadata>
<g transform="translate(0.000000,800.000000) scale(0.100000,-0.100000)"
fill="#000000" stroke="none">
<path d="M0 4000 l0 -4000 4000 0 4000 0 0 4000 0 4000 -4000 0 -4000 0 0
-4000z m5179 865 c195 -34 306 -76 447 -171 l95 -64 297 -2 297 -3 46 -135
c39 -112 52 -138 79 -159 43 -34 112 -124 149 -198 61 -120 66 -160 66 -553
l0 -355 278 -3 c152 -1 277 -6 277 -9 0 -4 -37 -45 -82 -90 l-83 -83 -100 0
c-99 0 -386 -15 -477 -25 -27 -3 -48 -2 -48 1 0 3 15 36 33 73 l32 66 3 374
c4 432 -2 477 -67 578 -75 117 -222 201 -381 219 -33 4 -64 12 -70 19 -9 11
16 12 130 8 77 -3 140 -4 140 -2 0 3 -9 29 -19 59 l-19 55 -274 5 -273 5 -80
55 c-44 30 -127 75 -185 101 -188 83 -146 80 -1068 79 -866 -1 -860 0 -1011
-50 -158 -53 -273 -124 -462 -288 l-116 -101 -59 24 c-96 40 -190 33 -280 -20
-42 -25 -54 -27 -197 -29 -132 -2 -162 -6 -230 -28 -157 -52 -299 -177 -376
-330 -75 -151 -75 -151 -79 -630 -3 -425 -3 -428 17 -428 23 0 215 -60 209
-65 -3 -3 -496 -26 -871 -40 l-137 -5 -93 90 -92 89 397 1 396 0 4 393 c4 370
6 397 27 477 106 391 427 645 794 628 91 -5 103 -3 142 18 53 30 184 64 245
64 26 0 72 -5 104 -12 l57 -11 52 50 c210 202 414 309 679 358 113 20 1620 21
1737 0z m-724 -244 c-27 -24 -199 -35 -610 -39 -236 -2 -426 0 -422 5 5 4 27
16 50 25 37 15 94 17 517 17 264 1 470 -3 465 -8z m780 -27 c135 -45 271 -121
365 -203 30 -26 32 -30 14 -31 -11 0 -47 16 -80 36 -145 88 -343 171 -461 194
-44 9 -63 17 -63 28 0 23 127 10 225 -24z m672 -324 c67 -5 143 -15 170 -21
64 -16 194 -83 224 -117 13 -14 16 -21 7 -14 -26 20 -179 70 -268 87 -44 8
-117 22 -162 31 -45 8 -95 21 -112 29 -30 13 -30 13 -6 14 14 0 80 -4 147 -9z
m-3263 -95 c-138 -31 -231 -70 -333 -142 -40 -29 -59 -39 -53 -26 11 20 72 82
107 107 18 14 9 15 -95 16 -140 0 -260 -14 -331 -39 -30 -10 -63 -22 -74 -26
-11 -4 3 8 30 26 101 66 169 82 375 89 102 4 241 7 310 7 l125 1 -61 -13z
m1141 4 c-170 -22 -227 -31 -345 -59 -130 -30 -286 -51 -525 -70 -95 -8 -162
-19 -210 -35 l-70 -24 32 28 c42 35 161 94 255 125 109 37 196 43 583 43 247
0 329 -2 280 -8z m640 -9 c-119 -29 -513 -161 -625 -207 -58 -25 -117 -48
-131 -53 -15 -4 -44 -16 -65 -25 -22 -9 -54 -23 -72 -31 -49 -21 -70 -18 -40
5 32 26 267 143 359 179 125 50 289 99 389 117 52 9 113 20 135 25 22 4 58 8
80 8 35 0 32 -2 -30 -18z m1295 10 c0 -5 -11 -10 -25 -10 -14 0 -83 -14 -153
-31 -70 -17 -152 -36 -182 -44 -30 -7 -62 -16 -70 -19 -11 -5 -16 0 -16 15 0
17 5 20 29 16 15 -2 30 -1 32 3 7 11 -413 20 -515 10 -304 -27 -604 -117 -911
-270 -55 -28 -103 -50 -105 -48 -8 9 245 142 381 201 217 94 418 155 585 176
96 12 950 13 950 1z m-585 -120 c3 -5 1 -10 -4 -10 -6 0 -11 5 -11 10 0 6 2
10 4 10 3 0 8 -4 11 -10z m50 0 c3 -5 1 -10 -4 -10 -6 0 -11 5 -11 10 0 6 2
10 4 10 3 0 8 -4 11 -10z m25 -137 c28 -19 45 -38 61 -68 9 -15 5 -14 -17 6
-73 67 -138 64 -216 -9 -33 -31 -36 -22 -7 20 46 63 127 87 179 51z m-3478
-137 c13 -19 9 -64 -8 -80 -22 -22 -50 -20 -68 6 -22 30 -20 54 5 79 21 21 56
19 71 -5z m2823 -30 c12 -18 13 -30 5 -50 -9 -24 -15 -27 -47 -24 -31 2 -39 8
-47 30 -20 56 57 94 89 44z m-187 -32 c41 -28 22 -94 -28 -94 -50 0 -69 66
-28 94 12 9 25 16 28 16 3 0 16 -7 28 -16z m-2530 -16 c7 -7 12 -27 12 -45 0
-25 -6 -36 -24 -44 -49 -23 -92 30 -62 76 18 27 54 33 74 13z m2362 -28 c24
-24 25 -38 4 -68 -17 -24 -53 -29 -72 -10 -17 17 -15 58 5 80 21 23 38 23 63
-2z m-799 -578 c24 -16 92 -67 150 -113 58 -46 121 -96 140 -111 30 -24 32
-27 12 -28 -12 0 -44 21 -75 48 -75 69 -196 160 -241 184 -37 19 -58 19 -647
16 -334 -2 -606 1 -603 5 14 23 91 26 634 26 l585 1 45 -28z m3499 -197 c0 -5
-60 -65 -126 -127 l-39 -37 -250 -46 c-138 -25 -302 -54 -365 -65 -165 -29
-665 -116 -870 -151 -96 -17 -260 -46 -365 -65 -295 -55 -600 -109 -830 -149
-115 -20 -394 -69 -620 -110 -392 -70 -662 -119 -1155 -206 -124 -22 -270 -49
-325 -59 -55 -11 -156 -29 -225 -40 l-125 -21 -153 157 c-84 86 -151 158 -150
160 2 1 53 9 113 18 61 8 279 40 485 71 785 117 979 144 1120 159 240 24 285
28 280 23 -3 -3 -96 -24 -207 -46 -112 -23 -226 -48 -255 -56 -49 -13 -51 -14
-18 -14 59 -1 471 56 930 130 399 63 1714 268 2180 339 107 16 326 50 485 74
415 63 485 72 485 61z m-4835 -296 c-152 -23 -292 -53 -302 -63 -4 -4 12 -5
37 -2 130 17 814 44 785 31 -31 -13 -601 -100 -925 -140 -113 -14 -227 -30
-255 -35 -27 -4 -110 -17 -183 -26 l-133 -18 -91 92 c-51 50 -90 93 -87 96 4
5 249 30 534 56 188 17 395 27 575 27 l165 1 -120 -19z"/>
</g>
</svg>
